/* XPM */
static char *_39acf4d5a8245e5b05572c08fa5818aShGXrxUtRMHJM1kV[] = {
/* columns rows colors chars-per-pixel */
"64 64 200 2 ",
"   c #190E0B",
".  c #140D0B",
"X  c #1C120E",
"o  c #1C1311",
"O  c #0D0500",
"+  c #24130C",
"@  c #29160E",
"#  c #2D1A13",
"$  c #241D19",
"%  c #2B1D19",
"&  c #251813",
"*  c #311E16",
"=  c #341F19",
"-  c #26211D",
";  c #2B231E",
":  c #35221B",
">  c #3A251D",
",  c #3B261B",
"<  c #2D2521",
"1  c #2F2826",
"2  c #362521",
"3  c #3A2622",
"4  c #352B25",
"5  c #3C2A25",
"6  c #352E29",
"7  c #3C2D29",
"8  c #3C322C",
"9  c #36312D",
"0  c #3B3430",
"q  c #3F3A36",
"w  c #422A1F",
"e  c #40271F",
"r  c #442D23",
"t  c #492E23",
"y  c #422E2A",
"u  c #463027",
"i  c #4B3125",
"p  c #45322C",
"a  c #4B342A",
"s  c #45382F",
"d  c #4B382E",
"f  c #513427",
"g  c #51362A",
"h  c #553A2D",
"j  c #593D2E",
"k  c #443531",
"l  c #4B3633",
"z  c #423933",
"x  c #4B3934",
"c  c #433D39",
"v  c #4B3C3A",
"b  c #543B33",
"n  c #5A3E32",
"m  c #513C38",
"M  c #5C412F",
"N  c #45413D",
"B  c #48433F",
"V  c #554036",
"C  c #5C4135",
"Z  c #55423A",
"A  c #5B443B",
"S  c #5E493E",
"D  c #62443A",
"F  c #644A3F",
"G  c #604335",
"H  c #71523C",
"J  c #4E4A45",
"K  c #4B4846",
"L  c #554642",
"P  c #554945",
"I  c #5B4B44",
"U  c #544D49",
"Y  c #5B4E4A",
"T  c #5B4740",
"R  c #56524E",
"E  c #5D514C",
"W  c #5C5855",
"Q  c #585754",
"!  c #644D43",
"~  c #6A4E43",
"^  c #614E49",
"/  c #655046",
"(  c #6B5145",
")  c #65524B",
"_  c #6B544B",
"`  c #6B584E",
"'  c #72554C",
"]  c #795A48",
"[  c #645652",
"{  c #665956",
"}  c #6A5A54",
"|  c #645D5C",
" . c #6B5C5B",
".. c #745B54",
"X. c #735E5B",
"o. c #7A5C53",
"O. c #66625E",
"+. c #72625E",
"@. c #7B615B",
"#. c #745F61",
"$. c #656562",
"%. c #6D6D6B",
"&. c #696765",
"*. c #746362",
"=. c #7B6665",
"-. c #7C6A6A",
";. c #786A6A",
":. c #6E736C",
">. c #72746E",
",. c #79786F",
"<. c #747572",
"1. c #747870",
"2. c #7A7A76",
"3. c #7C7D7A",
"4. c #88654B",
"5. c #8A6B56",
"6. c #977657",
"7. c #856C63",
"8. c #8F7564",
"9. c #917563",
"0. c #947968",
"q. c #9A7E70",
"w. c #7E817B",
"e. c #9F826C",
"r. c #82837E",
"t. c #A48B77",
"y. c #AA907B",
"u. c #BD966A",
"i. c #C99D6F",
"p. c #7F8180",
"a. c #858582",
"s. c #878883",
"d. c #898986",
"f. c #8D8D8A",
"g. c #888784",
"h. c #908F8C",
"j. c #91918E",
"k. c #959592",
"l. c #989794",
"z. c #9A9A96",
"x. c #9D9D9A",
"c. c #A09F9C",
"v. c #A58E80",
"b. c #9FA09D",
"n. c #A1A19E",
"m. c #A5A5A2",
"M. c #A8A7A5",
"N. c #A7A8A6",
"B. c #A9A9A6",
"V. c #ADADAB",
"C. c #B0AFAD",
"Z. c #AFB0AF",
"A. c #B1B1AE",
"S. c #B4B4B2",
"D. c #B8B7B4",
"F. c #B9B9B6",
"G. c #BCBCBA",
"H. c #B7B8B6",
"J. c #CDA782",
"K. c #C4AF96",
"L. c #D2B79D",
"P. c #C3BFBD",
"I. c #BFC0BF",
"U. c #C2C0BF",
"Y. c #EED6BB",
"T. c #BFC1C0",
"R. c #C6C2C1",
"E. c #C3C4C2",
"W. c #C8C3C3",
"Q. c #C9C5C4",
"!. c #CAC5C4",
"~. c #C8C4C3",
"^. c #C9C9C6",
"/. c #CCCDCB",
"(. c #C7C8C7",
"). c #CFD0CE",
"_. c #D0D0CE",
"`. c #D4D5D3",
"'. c #D9D9D7",
"]. c #DCDCDB",
"[. c #D7D8D6",
"{. c #CFD0D0",
"}. c #E0DFDD",
"|. c #DFE0DD",
" X c #E1E0DE",
".X c #F9EAD2",
"XX c #FBECCF",
"oX c #E3E3E2",
"OX c #EAEAE9",
"+X c #F2EEED",
"@X c #FFFFE3",
"#X c #F3F1EF",
"$X c #FFFFE8",
"%X c #F5F2F1",
"&X c #F9F6F4",
"*X c #FAF8F7",
"=X c white",
"-X c #FEFEFE",
";X c #FCFCFC",
":X c #FFFFFF",
/* pixels */
"=X=X=X=X=X=X=X=X=X=X=X;X=X=X=X=X=X=X=X=X=X=X=X=X=X=X=X*X=X=X=X=X=X=X=X=X=X=X=X=X=X=X=X=X=X=X=X=X=X=X=X;X=X=X=X=X=X=X=X=X=X=X=X=X",
"=X=X=X=X=X=X=X=X=X=X=X=X=X=X=X=X=X=X=X=X=X=X=X=X=X=X=X=X=X=X=X=X=X=X=X=X=X=X=X=X=X=X=X=X=X=X=X=X=X=X=X=X=X=X=X=X=X=X=X=X=X=X=X=X",
"=X=X=X=X=X*XR.P.P.P.P.P.P.U.P.U.U.P.U.U.U.U.R.R.R.R.W.R.R.W.Q.W.W.Q.Q.W.W.Q.Q.R.R.R.W.R.Q.Q.Q.Q.W.Q.W.W.R.R.Q.Q.Q.Q.*X=X=X=X=X=X",
"=X=X=X=X=X&XL O                           X X o X X X   X X X o o X X   X X o X X X o o o o o o o o X o o X o o   E %X=X=X=X=X=X",
"=X=X=X=X=X*XP X 2 : 7 7 y u y y p a a a a p p p p p k x x x k = & k x v x k p p p p p a a a p p y y y 7 3 6 : : & [ %X=X=X=X=X=X",
"=X=X=X=X=X&XP 7 v L I I E [ {  .X.X.+.*.*.*.*.+.+. . .*.=.*.*.l 3  .*.=.*.+. .+.+.+.*.*.*.+.+.X. .{ [ E Y I P v z [ #X=X=X=X=X=X",
"=X=X=X=X=X&XP 6 L L P Y E E P v k 8 7 7 8 p v Y {  . . .*.*. .p 2  .*.*. . . . .Y v z 0 7 8 7 8 v I ) E Y P I P k { %X=X=X=X=X=X",
"=X=X=X=X=X&XU 7 [ E E P z 4 < c &.$.>.$.&.&.K < ; s P  .*.*.X.k 3  .*.*.X.P 0 < 1 J %.| <.| %.| c - 4 x P Y E ) z  .%X=X=X=X=X=X",
"=X=X=X=X=X*XY 8 Y [ U 6 K 3.A.V.F.^.E./.^.].A.B.3.J 6 I -.*.#.l 5  .=.=.[ 6 R f.S.V.E.E.^.(.`./.V.n.%.K 8 Y [ Y c  .%X=X=X=X=X=X",
"=X=X=X=X=X*XY 0 E [ Y 2 l.oXoXoXE.d.S.V./.A._.].oXE.N A -.=.-.l 5 *.-.-.Y 8 G.oXoXoXV.k.S.S.^.A.].].oXm.6 Y { Y v  .%X=X=X=X=X=X",
"=X=X=X=X=X&XP 0 { { E ; n.oX`.E.OXA.l.H.V.V.oX[.].^.8 T -.-.=.l 5 *.-.-.^ 9 (.]./.(.OXz.m.F.m.U.oX`.oXm.; E { { v { %X=X=X=X=X=X",
"=X=X=X=X=X*XY 8 {  .E ; x.oX].H._. XA._.].H.)./.^.{.0 T -.=.=.x 7 *.=.-.^ 6 (.oX'.S.].`.S.[.[.S.].E.'.B.; E  .{ v { %X=X=X=X=X=X",
"=X=X=X=X=X*XY 8 ` } I 6 l.].].F.'.oXE./.oX[.S.H.].(.B A -.=.=.x 7 *.=.=.I c H.oX[.G.oXoXF.].oX/.A.U.oXN.6 Y { } v { %X=X=X=X=X=X",
"=X=X=X=X=X&XY 8 ` ) I 7 x.f.N.^.`././.G. X].].oX`.U.R V =.@.*.v 7 X.X.@.C K N.g.S._._.`.E.^.].].].oX/.Z.8 I { ) x { %X=X=X=X=X=X",
"=X=X=X=X=X&XI 8 ) } ) ; l.[.S.oXH.3.].H.'.`.[.`.S.].U V @...X.m y ....@.S 6 I.(.G.oXz.k.].F.].`.].(.G.(.6 I } ) x { #X=X=X=X=X=X",
"=X=X=X=X=X&XI 8 ) ) ! 6 f./.G.[./.A.E.G./.'.^.V./.].P V o.....m y ..X.@.C q V.^.E.].^.V.^.H.[.[.G.A.].T.6 I ) / x { %X=X=X=X=X=X",
"=X=X=X=X=X&XI 8 ) ) I 6 S.E.k.B.N.S.B.S.E.^.V./.`.`.P C @.....m y ....@.A N `.V.x.N.B.Z.V.S./.G.S._.'.F.6 I ) ) x { #X=X=X=X=X=X",
"=X=X=X=X=X&XI 8 ) } ! 6 N.m.V.E.E.S.k.z.H.m.B.B.V.^.J C @.....m y ....@.C N H.x.F.E.U.V.j.m.H.x.V.m.H.H.6 I } ) x { #X=X=X=X=X=X",
"=X=X=X=X=X&XP p / ) ! 8 g.F.E.F.G.U.S.a.z.z.S.H.B.N.J V @.....m y ....@.C c x.U.G.G.G.E.n.g.k.m.H.H.B.z.8 I } ! x ` %X=X=X=X=X=X",
"=X=X=X=X=X&XI 8 ) ) ! 4 g.G.S.H.S.S.G.3.%.F.S.S.G.B.c C ......m y ` ....C 0 N.H.S.S.S.S.H.$.a.G.S.H.U.j.6 S ) ) x { %X=X=X=X=X=X",
"=X=X=X=X=X&XT 7 ` ) ! 4 d.F.V.V.S.V.F.2.3.H.x.A.S.V.z C ' _ _ m y ) _ ' C 9 N.S.V.Z.S.V.H.O.z.V.n.S.H.k.4 ! ` ` x ` %X=X=X=X=X=X",
"=X=X=X=X=X&XL 7 ) ) ! 4 a.H.V.3.m.A.S.r.k.V.z.V.B.m.K n ' _ ' m y _ _ ' C 0 b.S.m.3.A.V.V.2.N.m.n.V.V.j.8 S ) ) k ) #X=X=X=X=X=X",
"=X=X=X=X=X&XL 7 _ ` ! 8 3.N.S.3.2.S.z.g.z.V.n.k.k.B.U h .._ _ l y ( _ ..n c k.B.V.&.j.A.f.f.x.A.z.k.z.x.8 S ) ) a ) #X=X=X=X=X=X",
"=X=X=X=X=X&XT 5 ! _ F 8 f.k.B.N.a.f.j.x.N.k.B.N.B.S.P b o.' ( l y ( ' o.n N z.l.V.x.a.j.j.m.n.z.B.m.V.m.8 S _ I p ` %X=X=X=X=X=X",
"=X=X=X=X=X&XT 5 ! ) S 6 k.x.k.V.V.V.n.x.n.x.l.V.m.m.J b o.~ ( l y ~ ~ ' C z N.k.b.V.B.B.x.n.n.x.z.V.n.z.8 A ) ! p ) %X=X=X=X=X=X",
"=X=X=X=X=X&XA 7 ! ) A 6 j.H.k.x.A.V.x.V.r.j.n.f.z.n.N b ' 7.( p 3 ! 7.' b z B.A.j.B.V.V.x.B.3.x.z.f.n.f.6 C ) / p ^ #X=X=X=X=X=X",
"=X=X=X=X=X&XT 5 / ! C 7 l.D.H.x.m.H.x.V.V.V.m.g.z.S.J i 7.Y.0.y 3 @.Y.q.i v V.S.S.l.V.A.x.V.V.V.x.r.B.b.8 b ~ ( p ) #X=X=X=X=X=X",
"=X=X=X=X=X&XL 5 _ ! n 8 z.H.x.x.a.B.B.V.S.G.j.x.m.H.R r q..Xy.3 : 0..Xv.t N S.V.x.l.a.A.m.S.S.H.s.B.m.V.8 b ~ _ p ) %X=X=X=X=X=X",
"=X=X=X=X=X&XT 5 ! ! A 7 l.z.x.B.n.2.j.V.S.S.j.S.B.A.R r 0.$Xy.3 : 8.$Xy.t N B.j.m.B.k.2.z.A.S.V.j.G.m.B.8 n ! / p ) #X=X=X=X=X=X",
"=X=X=X=X=X&XT 5 S ! C 8 a.B.D.V.f.A.3.g.S.D.S.H.c.H.R r 0.@Xy.3 2 9.@Xy.r N k.C.H.n.z.N.2.l.F.S.S.A.m.V.8 b ~ S y ! #X=X=X=X=X=X",
"=X=X=X=X=X&XI 3 ~ ~ C 8 a.D.S.S.$.H.V.g.a.V.A.n.B.U.R r 0.XXt.3 2 9.XXt.r c x.S.H.x.>.E.n.r.j.A.V.x.S.A.8 b ! ( y ) %X=X=X=X=X=X",
"=X=X=X=X=X&XA 3 ! ~ C 7 d.M.G.V.k.G.V.B.m.f.n.A.G.E.W r 0.K.t.5 2 8.K.t.r N x.B.P.x.x.G.M.V.z.j.B.S.U.S.z g ~ ~ y ! #X=X=X=X=X=X",
"=X=X=X=X=X&XA > ~ ! C 6 z.m.3.a.G.H.S.c.F.V.n.S.H.G.W r 9.L.e.7 2 5.L.e.r c V.l.2.l.G.S.V.m.G.m.m.H.G.V.z g ! ~ y ! %X=X=X=X=X=X",
"=X=X=X=X=X&XI > ( ~ C 8 3.A.k.k.z.S.V.x.V.S.V.l.m.H.R r 5.J.6.y 2 4.J.9.i c j.V.f.k.n.S.M.x.S.H.N.z.V.N.z j ~ ( y ) %X=X=X=X=X=X",
"=X=X=X=X=X%XZ > A D C 7 a.f.h.S.z.z.V.z.m.k.m.A.k.M.W r 5.i.4.y 3 ] i.6.i z k.a.x.A.j.m.N.x.x.k.B.V.k.m.z g D A r Z #X=X=X=X=X=X",
"=X=X=X=X=X&Xm : A n b 6 a.g.g.k.V.z.n.f.f.m.h.d.V.k.R y 5.u.4.7 2 ] u.6.r c k.a.g.x.V.l.c.g.k.m.r.z.N.f.z g n A 3 T %X=X=X=X=X=X",
"=X=X=X=X=X%XZ = F A b 6 %.N.B.k.c.M.f.g.B.V.m.2.B.m.J r ] 6.] 7 2 H 6.4.i 0 g.B.N.j.M.n.g.f.V.C.k.r.A.j.8 a A F , I +X=X=X=X=X=X",
"=X=X=X=X=X&XZ = D D C 4 <.V.M.k.n.B.3.j.B.B.V.n.n.N.N a C C n y 5 b C C g 6 k.B.m.j.B.c.2.x.V.B.B.c.B.k.6 b D D , ! %X=X=X=X=X=X",
"=X=X=X=X=X&XZ = n D n 7 >.B.N.n.B.c.f.x.x.M.m.m.V.z.J p C C C y 5 n D C a 8 g.B.m.n.V.k.k.z.m.M.m.m.V.g.8 g D D , ! #X=X=X=X=X=X",
"=X=X=X=X=X%XZ : n C j 8 a.z.B.A.V.h.V.A.z.M.C.B.z.k.W r C C n y 5 b C C i c j.x.V.A.m.j.S.B.z.V.C.M.k.j.v i C C , S +X=X=X=X=X=X",
"=X=X=X=X=X%XZ = C C n 6 %.<.$.Q W <.3.r.3.%.$.$.&.a.J u C n n y 3 j n C i 0 3.%.O.Q $.3.3.a.2.%.$.$.%.p.8 g C C > A #X=X=X=X=X=X",
"=X=X=X=X=X&XZ = C C h x p p s p l s p p p l p p x p s d n n n 7 3 b n n b x p s p p x p p p p p p l l p s j C C > I #X=X=X=X=X=X",
"=X=X=X=X=X%XA : C n n S F ! ~ ( ~ ( ( ( ( ( ~ ~ F ! ! C n n j 5 2 g n n n F F F ~ ~ ( ( ( ( ( ~ ( ~ ~ ! I C C C , S #X=X=X=X=X=X",
"=X=X=X=X=X%XZ : C n j ! ! / ( ( ( ( _ ( ( ~ ( ) ! ! ! n j b j 7 3 g n n n ! ! ! ~ ( ( ( ( _ ( ( ( ( / ! I n n C , S #X=X=X=X=X=X",
"=X=X=X=X=X&XZ : C n g y a l l l l x l x x l x x x x l p n b b 5 2 g n n i p x x x x l x x l x l l l l a y a n C > A #X=X=X=X=X=X",
"=X=X=X=X=X&XV * h h a * y p p p p p p p p p p p p l : w n b j 5 2 g b n r : l p p p p p p p p p p p p p * i h b : A #X=X=X=X=X=X",
"=X=X=X=X=X%Xm # n j i : : 5 u r r p i r r r u u r : > r b b j 5 2 h n n r > : r i i r r r u p u r u r : : i j C : A #X=X=X=X=X=X",
"=X=X=X=X=X%XV # b j i : : i C n C G C n n n C C C , > r b b j 5 2 h n b r > , j C C n n n C G C n C g : : r j b : A #X=X=X=X=X=X",
"=X=X=X=X=X&XV # g h i : : i j j n n j j j j j j j > : r b j j 5 2 h b j r : : j j j j j j j n n j j i : : r j g : A #X=X=X=X=X=X",
"=X=X=X=X=X%Xx # a h i : : t j j j j j j j j j j j > > w j j j 3 : g j j r : : j j j j j j j j j j j i : : t j a * Z #X=X=X=X=X=X",
"=X=X=X=X=X%Xx # g h i : : i j M j j n j h j j j j > > r h j j 5 : g j j r > : j M j j h j n j j M j i : : i h a * b +X=X=X=X=X=X",
"=X=X=X=X=X#Xd # i g i : : p b b b b m m m m m m b 3 : r h j j 5 : g j h r : > m m m m m m m b m m b a : : r h i * b +X=X=X=X=X=X",
"=X=X=X=X=X#Xx @ i i i : y 5 7 7 y y y y y y y y y p 5 , g g f 3 : i h g w 3 k y y y y y y y y y 7 7 5 y : w g i # V #X=X=X=X=X=X",
"=X=X=X=X=X#Xd @ t i i : y y 7 y y y y y y 7 y y y 7 5 w g g f 3 : i g g r 3 7 5 y y 7 y y y y y y y y y : i g i # b +X=X=X=X=X=X",
"=X=X=X=X=X#Xd + r r i g a d g g g g g h h g g g g g a i i i i 2 : t i i i a f g g g g g h h g g g g g i g g w r @ b +X=X=X=X=X=X",
"=X=X=X=X=X#Xd + w w i g g h h g g a g g g g g g a g a i t t r 2 % r i t i a g a a g g g g g a g g h h g g i w w @ b +X=X=X=X=X=X",
"=X=X=X=X=X+Xp + , w r a a a a a a g g g i i p p i i i t r r r : % r r r r i i u p p i i g g g a a a a a a r w , + a +X=X=X=X=X=X",
"=X=X=X=X=X+Xp + , , r i a p p i i p p p p p i p p i i r r r r : % e r r r i i p p i p i p p p i i a a a p r , > + a +X=X=X=X=X=X",
"=X=X=X=X=X#Xp   : 5 r y p p p p p p p p p p p p p p p r y y r : % , y y y p p p p p p p p p p p p p p p y r 5 : + d +X=X=X=X=X=X",
"=X=X=X=X=X+Xp . $ $ $ $ $ $ - - ; ; ; ; ; ; < < < < < < < < < $ o < 1 < < < < < < < ; ; ; ; ; ; ; - - - - $ $ $ . p +X=X=X=X=X=X",
"=X=X=X=X=X+X4 J &.$.:.:.:.:.1.1.<.>.:.>.>.>.>.>.1.1.1.2.3.3.w.w.w.r.3.3.w.w.3.r.r.w.a.a.a.a.a.s.s.g.a.a.r.2.1.>.,.I oX=X=X=X=X=X",
"=X=X=X=X=X*XG.^.).`.`.'.'.'.].'.].'.`.`.`.[.'.'.'.].].].].].].}. X].].].|.}. XoXoX XoXoXoXoXoXoXoXoXoXoXoX X|. XoX!.&X=X=X=X=X=X",
"=X=X=X=X=X=X=X=X=X=X=X=X=X=X=X=X=X=X=X=X=X=X=X=X=X=X=X=X=X=X=X=X=X=X=X=X=X=X=X=X=X=X=X=X=X=X=X=X=X=X=X=X=X=X=X=X=X=X=X=X=X=X=X=X",
"=X=X=X=X=X=X=X=X=X=X=X=X=X=X=X=X=X=X=X=X=X=X=X=X=X=X=X=X=X=X=X=X=X=X=X=X=X=X=X=X=X=X=X=X=X=X=X=X=X=X=X=X=X=X=X=X=X=X=X=X=X=X=X=X"
};
