/* XPM */
static char *_82c7100b2ee4751ade1ddb7f1511571wQTruESUx1Y7V5hx[] = {
/* columns rows colors chars-per-pixel */
"64 60 224 2 ",
"   c None",
".  c #010100",
"X  c #0B0504",
"o  c #1C1412",
"O  c #261812",
"+  c #3A0000",
"@  c #38241B",
"#  c #2D231F",
"$  c #26262A",
"%  c #362923",
"&  c #332E30",
"*  c #2F3134",
"=  c #353235",
"-  c #2F2E32",
";  c #580403",
":  c #490000",
">  c #41291F",
",  c #442E24",
"<  c #463428",
"1  c #55352A",
"2  c #5A3B2E",
"3  c #4D3B31",
"4  c #463835",
"5  c #543D33",
"6  c #6B3E2C",
"7  c #623D2E",
"8  c #673F30",
"9  c #5C4334",
"0  c #58443A",
"q  c #69442E",
"w  c #644534",
"e  c #6B4333",
"r  c #6B4A33",
"t  c #624A3B",
"y  c #684739",
"u  c #734C35",
"i  c #7C4933",
"p  c #764939",
"a  c #7B4D3B",
"s  c #754734",
"d  c #74533B",
"f  c #6D503B",
"g  c #3C3E46",
"h  c #3E424A",
"j  c #42444B",
"k  c #594844",
"l  c #454852",
"z  c #5C5354",
"x  c #634C42",
"c  c #644E4A",
"v  c #694C42",
"b  c #724D42",
"n  c #6B5348",
"m  c #725443",
"M  c #7B5D44",
"N  c #785648",
"B  c #6A5756",
"V  c #745B53",
"C  c #765D58",
"Z  c #7D6246",
"A  c #7D645A",
"S  c #796159",
"D  c #545763",
"F  c #736264",
"G  c #77696B",
"H  c #7C6F71",
"J  c #6D6B75",
"K  c #930504",
"L  c #A8271D",
"P  c #913226",
"I  c #EA1919",
"U  c #DC3C2F",
"Y  c #E62824",
"T  c #F33633",
"R  c #834D35",
"E  c #844F3B",
"W  c #884032",
"Q  c #8C5137",
"!  c #84503E",
"~  c #8D533A",
"^  c #92553A",
"/  c #9C5A3D",
"(  c #97583C",
")  c #904738",
"_  c #A25E3F",
"`  c #EB4639",
"'  c #8D5643",
"]  c #875747",
"[  c #9D5D43",
"{  c #935C4B",
"}  c #9A5E4A",
"|  c #925943",
" . c #8A5F53",
".. c #915F52",
"X. c #A15F42",
"o. c #81654B",
"O. c #866648",
"+. c #9D614C",
"@. c #85655A",
"#. c #956153",
"$. c #9C6353",
"%. c #9B665B",
"&. c #9D685D",
"*. c #8F7359",
"=. c #997C5C",
"-. c #957859",
";. c #A56143",
":. c #AA6444",
">. c #A3634D",
",. c #AB674C",
"<. c #AF694B",
"1. c #B36B4D",
"2. c #BA654C",
"3. c #A36654",
"4. c #A96751",
"5. c #A66854",
"6. c #AB6A54",
"7. c #A46B5B",
"8. c #AA6C5A",
"9. c #B36E55",
"0. c #B86F54",
"q. c #A9735F",
"w. c #BB7255",
"e. c #BD755A",
"r. c #BA745A",
"t. c #886D64",
"y. c #986B64",
"u. c #897266",
"i. c #977C66",
"p. c #987978",
"a. c #847275",
"s. c #A46D63",
"d. c #A4726B",
"f. c #AB7668",
"g. c #B97C69",
"h. c #A67978",
"j. c #F84848",
"k. c #C2775A",
"l. c #C4795E",
"z. c #CA7C5E",
"x. c #C37555",
"c. c #D26E55",
"v. c #C57C62",
"b. c #CA7E63",
"n. c #C17D6B",
"m. c #D47E63",
"M. c #FF6868",
"N. c #CA5E4D",
"B. c #9E815E",
"V. c #9E8777",
"C. c #A7896A",
"Z. c #BB806F",
"A. c #A8847D",
"S. c #B58379",
"D. c #B49474",
"F. c #B99A7A",
"G. c #AB917A",
"H. c #AB8559",
"J. c #CC846C",
"K. c #C98269",
"L. c #CB8978",
"P. c #D38D72",
"I. c #D18E7B",
"U. c #C79777",
"Y. c #D7917A",
"T. c #D0866F",
"R. c #C8A47B",
"E. c #D6AD7B",
"W. c #707685",
"Q. c #857B84",
"!. c #9B7B81",
"~. c #9B8D94",
"^. c #98898C",
"/. c #AC8687",
"(. c #B28E95",
"). c #B3919A",
"_. c #A79294",
"`. c #BCA593",
"'. c #9798AB",
"]. c #B99BA5",
"[. c #BCA7AB",
"{. c #B9A7B4",
"}. c #ACA6B2",
"|. c #D79789",
" X c #C89898",
".X c #D89E95",
"XX c #C59489",
"oX c #CBA981",
"OX c #D3A888",
"+X c #D9B486",
"@X c #DAA199",
"#X c #E4BA86",
"$X c #E0A69F",
"%X c #CF9FA0",
"&X c #DAABA9",
"*X c #C2A9B7",
"=X c #DCB4BA",
"-X c #CCAFAD",
";X c #E5B5B7",
":X c #E1ACA9",
">X c #EEC38F",
",X c #F6CB93",
"<X c #FDD699",
"1X c #EFC78F",
"2X c #D5C1BD",
"3X c #FCDEA3",
"4X c #E9D7B9",
"5X c #FEE6A8",
"6X c #FFECB8",
"7X c #BAB9C7",
"8X c #C8B9C9",
"9X c #CBBFD1",
"0X c #E9BEC3",
"qX c #BCC0D0",
"wX c #D1C3D3",
"eX c #D4CBD7",
"rX c #DCCDC7",
"tX c #EAC6C8",
"yX c #FFD7D7",
"uX c #EFCCD4",
"iX c #DDD3E4",
"pX c #E4DAE7",
"aX c #F2F5F9",
"sX c #ECECF0",
/* pixels */
"                                                                                                                                ",
"                                                                                                                                ",
"                                                                                                                                ",
"                                                                                                                                ",
"                                                                                                                                ",
"                                                                                                                                ",
"                                                                                                                                ",
"                                                                                                                                ",
"                                                                                                                                ",
"                                                                                                                                ",
"                                                                                                                                ",
"                                                                                                                                ",
"                                                        =X&X%X X X X X%XQ.l j h h l D                                           ",
"                                                    =X.XXXL.K.n.g.g.f.F h * - $ $ $ * l                                         ",
"                                        '.W.    =X.XI.J.b.v.l.e.r.7.B = & 4 B Q.F o o $ g                                       ",
"                                      W.J W.J ].|.L.J.b.v.l.k.w.8.k - , e N @.p.{.      $                                       ",
"                                      g j   D @.L.J.K.b.l.k.w.6.c & 2 E ' { ..y.!.{.                                            ",
"                                      =     a.c K.T.J.v.k.w.5.c = e { +.>.$.$.%.y._.9X                                          ",
"                                          @XS.z f.P.J.r.0.#.k = 1 e ] 9.6.3.$.%.y.h.{.                                          ",
"                                        ;XL.] k B Z.v.{ x 4 2 p p p e | 9.5.3.%.y.d./.9X                                        ",
"                                        @X{ e p 9  .,.N 5 e a a s 1 O @ 6.5.3.$.&.d.h.{.                                        ",
"                                      tXg.7 a a p 9.w.>.p p 7 @ o . . X ' 6.5.3.7.s.h.(.wX                                      ",
"                                      &Xp o 2 a a g.z.E > O X . . . . . e 9.6.5.7.s.d./.*X                                      ",
"                                    uXL.@ . ; L ) K.k.1 . . . . . + : X e w.9.6.7.s.d.h.).wX                                    ",
"                                    ;X$.X ; I j.Y b.e.< . . . . ; I T K ~ w.9.6.8.7.s.h./.*XpX                                  ",
"                                  uX|.a O K M.yXT c.e.1 . . . . K M.yXT 2.0.9.6.8.8.s.d.h.(.8X                                  ",
"                                  ;XL.p p P Y j.` z.k.s . . X X ; Y j.U w.0.0.9.6.8.8.s.d./.].eX                                ",
"                                tX.XK.p a a W N.m.z.k.>., 1 7 8 8 P P 2.0.0.0.9.6.6.8.8.s.h./.[.iX                              ",
"                              uX$X|.I.N p p 7.P.K.l.k.e.+.a p p p a +.9.6.9.9.9.6.6.5.8.7.d.h./.*X                              ",
"                              :X@X.X|.Z.&.g.P.q.v v b ] 6.6.+.{ } 3.6.>.XX2X7.6.6.5.5.5.7.s.d.h.).wX                            ",
"                            0X|.tX-XI.Y.T.e.m = * = - 4 | [ >.>.>.>.} { rXaXA.[ 4.6.5.5.5.7.s.h./.*XpX                          ",
"                            @XI.sX*Xg.e.0./ w 9 y w w e Q ^ ^ ~ ~ ! E @.sXaX{.! >.6.5.5.3.3.&.d.h.).wX                          ",
"                          ;XI.OXaX7XS.J.K.K.b.z.z.z.x.x.x.x.0.<.[ R 6 u.aXsX7XN } 9.6.5.3.$.%.y.h./.8X                          ",
"                          :XI.&XpX&XY.Y.Y.Y.P.P.J.K.K.b.l.l.k.k.w.0.>.f.2XeXqXG ' r.9.6.3.$.$.&.y.h.].iX                        ",
"                          :X|.&X$XY.P.P.T.K.K.v.v.l.l.e.e.e.r.w.0.0.9.9.9.g.A.y.+.w.9.5.3.#.#.#.y.p.(.wX                        ",
"                          ;X;X@XJ.l.e.e.w.w.w.1.1.1.1.1.1.1.<.<.,.,.4.4.6.6.4.5.5.6.5.$.} { { ..#.y.p.{.                        ",
"                          =X@XK.w.1.1.<.:.:.:.:.:.;.;.;.;.;.;.;.X.X.[ +.+.+.+.$.$.+.} { { ' ' ] ]  .u.~.                        ",
"                          XXZ.0.<.:.;.;.X._ / / / / / / / / / / / ( ( ( ^ | | ' ' ' ' ' ! ! ! ] ] ] t.                          ",
"                          S.f.,.;.X./ / ( ^ ^ ~ ~ ~ ^ ^ ^ ^ ^ ^ ~ Q Q Q R E E E E ! E E a a a a N C a.                          ",
"                            d.$.{ | ~ ~ R R i i i i i R R R R R R R i i i i i i i i i s p p b n C H                             ",
"                              u.@.C N b y y w e e u u u u s s e e q q 6 6 6 6 6 q e e y v n B F                                 ",
"                                    H G F F S A *.o.Z M M M M M m d f r r w w y x c B B F                                       ",
"                                                  t.Z Z o.o.o.Z Z Z Z M M M @.                                                  ",
"                                                [.V.i.i.i.i.=.=.-.*.*.*.*.*.V.                                                  ",
"                                                4X+XoXF.D.D.D.C.C.C.C.C.C.C.G.[.                                                ",
"                                                6X5X5X3X<X>X+XoXR.F.D.D.D.D.F.`.                                                ",
"                                                5X5X5X5X3X<X<X,X>X#XOXR.F.F.F.`.                                                ",
"                                        7X}.~._.,X<X<X<X<X<X,X1X>X#X+XR.F.D.C.A.7X                                              ",
"                                    8X_.a.V r q H.,X<X<X,X,X1X#X#X+XR.D.=.o.d m H Q.'.7X                                        ",
"                                  7X~.u.A d r q r =.E.#X#X#XE.E.R.U.C.O.d u q q q w B Q.}.                                      ",
"                                  _.^.p.t.V m v t t m O.-.B.B.=.-.O.O.] o.d u u r f n F Q.}.                                    ",
"                                ~.^._.V.u.S V B c k 0 3 , , , 0 t u o.u.i.*.o.M N N V C G ~.                                    ",
"                                u.t.u.u.A V n c k 0 5 3 , @ O & 9 u o.i.G.V.u.A C C C C F H ^.                                  ",
"                                  N m m f t 9 0 3 3 < , @ @ # = w r M *.i.i.t.A C V B B B B G                                   ",
"                                    x 9 9 3 < < , , % % % %       t f m M M N m n x k 0 0 k                                     ",
"                                                                    x t w w w 9 9 3 3 3 3 k                                     ",
"                                                                          0 3 3 3 4 4 4                                         ",
"                                                                                                                                ",
"                                                                                                                                ",
"                                                                                                                                "
};
