/* XPM */
static char *d962f7ba7a514ee58b9a52206c488d488lvWdWDcCipfkV1y[] = {
/* columns rows colors chars-per-pixel */
"64 60 227 2 ",
"   c None",
".  c #010100",
"X  c #0B0504",
"o  c #1C1413",
"O  c #261812",
"+  c #3B0000",
"@  c #37241A",
"#  c #282528",
"$  c #382A22",
"%  c #332F31",
"&  c #2F3135",
"*  c #353335",
"=  c #2B2B30",
"-  c #580403",
";  c #490000",
":  c #41291F",
">  c #462E25",
",  c #433124",
"<  c #49362B",
"1  c #55352A",
"2  c #5A3C2E",
"3  c #4C3B32",
"4  c #463936",
"5  c #543D33",
"6  c #6B3F2D",
"7  c #623D2E",
"8  c #673F30",
"9  c #5D4434",
"0  c #584439",
"q  c #69452E",
"w  c #644535",
"e  c #6B4434",
"r  c #6B4B34",
"t  c #634A3B",
"y  c #694839",
"u  c #734C35",
"i  c #7C4934",
"p  c #754A39",
"a  c #7B4D3B",
"s  c #754734",
"d  c #755339",
"f  c #6E503B",
"g  c #3D3F47",
"h  c #3F424B",
"j  c #43444B",
"k  c #594844",
"l  c #454853",
"z  c #5D5355",
"x  c #634C42",
"c  c #674D46",
"v  c #734D42",
"b  c #6B5349",
"n  c #725543",
"m  c #7A5C44",
"M  c #795749",
"N  c #6A5856",
"B  c #745C54",
"V  c #725D5B",
"C  c #7B5D54",
"Z  c #7D6145",
"A  c #7C6248",
"S  c #7B6259",
"D  c #555864",
"F  c #736364",
"G  c #796969",
"H  c #7C7277",
"J  c #6D676E",
"K  c #930504",
"L  c #913326",
"P  c #A9271D",
"I  c #EA1919",
"U  c #DD3C2F",
"Y  c #E62824",
"T  c #F33633",
"R  c #834D34",
"E  c #844E39",
"W  c #884032",
"Q  c #84503E",
"!  c #8D533B",
"~  c #8C5137",
"^  c #92553A",
"/  c #9D5B3D",
"(  c #96583D",
")  c #904738",
"_  c #A15D3E",
"`  c #EC463A",
"'  c #8D5643",
"]  c #8D5A4A",
"[  c #845646",
"{  c #925943",
"}  c #925C4B",
"|  c #975B46",
" . c #925F53",
".. c #895F51",
"X. c #A15F42",
"o. c #81654B",
"O. c #876749",
"+. c #9E614C",
"@. c #866559",
"#. c #9C6353",
"$. c #996559",
"%. c #977A5A",
"&. c #8F7458",
"*. c #A56143",
"=. c #AA6344",
"-. c #A4644D",
";. c #AC684C",
":. c #AB674F",
">. c #B26B4D",
",. c #BA654C",
"<. c #A46654",
"1. c #A66856",
"2. c #AB6A55",
"3. c #A46B5C",
"4. c #AA6C5A",
"5. c #A36756",
"6. c #B36E55",
"7. c #B86F55",
"8. c #AA745F",
"9. c #B77056",
"0. c #BB7256",
"q. c #BD755A",
"w. c #BA755C",
"e. c #896D65",
"r. c #986B64",
"t. c #8B7263",
"y. c #887268",
"u. c #9A7D61",
"i. c #96796B",
"p. c #857376",
"a. c #997A78",
"s. c #A46D63",
"d. c #A4736C",
"f. c #AA7569",
"g. c #B97C69",
"h. c #A97C7C",
"j. c #A67876",
"k. c #F84848",
"l. c #C2775B",
"z. c #C4795C",
"x. c #C7795A",
"c. c #D26E55",
"v. c #C57C62",
"b. c #CA7E63",
"n. c #C17E6B",
"m. c #D37E63",
"M. c #FF6767",
"N. c #CA5E4D",
"B. c #9E815E",
"V. c #9E8877",
"C. c #A7896A",
"Z. c #BC816F",
"A. c #A58A79",
"S. c #B4847A",
"D. c #B49575",
"F. c #B99A79",
"G. c #AB917A",
"H. c #AB855A",
"J. c #CB846C",
"K. c #C98369",
"L. c #CD8976",
"P. c #D38D73",
"I. c #D18E7D",
"U. c #C89877",
"Y. c #D7927A",
"T. c #D0876F",
"R. c #C8A57C",
"E. c #D6AE7B",
"W. c #6E7381",
"Q. c #737887",
"!. c #857B85",
"~. c #9C7C81",
"^. c #998E96",
"/. c #9C8B8A",
"(. c #AB8585",
"). c #A68C93",
"_. c #B4929B",
"`. c #AD8F90",
"'. c #BDA593",
"]. c #9899AB",
"[. c #B99CA6",
"{. c #A799A0",
"}. c #A7A4B4",
"|. c #B9A7B4",
" X c #BEAFAB",
".X c #CA8D81",
"XX c #D79788",
"oX c #C89998",
"OX c #D89E96",
"+X c #C3978D",
"@X c #D3A889",
"#X c #DAB586",
"$X c #DAA29A",
"%X c #CBA981",
"&X c #E3BA86",
"*X c #E0A59F",
"=X c #C9A0A4",
"-X c #D9ABAA",
";X c #C1A7B5",
":X c #DDB3B8",
">X c #CDB4B3",
",X c #E0AAA6",
"<X c #E5B5B7",
"1X c #ECC28D",
"2X c #F7CC93",
"3X c #FFDB9D",
"4X c #FCD398",
"5X c #F0C690",
"6X c #D5C1BD",
"7X c #FCDFA4",
"8X c #E9D8BA",
"9X c #FFE6A9",
"0X c #FFEDB8",
"qX c #BAB9C9",
"wX c #C7BAC9",
"eX c #DBB7C0",
"rX c #E9BFC4",
"tX c #BCC1D1",
"yX c #D3C6D5",
"uX c #D5C7CD",
"iX c #EAC6C6",
"pX c #EEC8D1",
"aX c #FAD5D8",
"sX c #DED4E4",
"dX c #E5DBE8",
"fX c #F2F5F9",
"gX c #EDEDF0",
/* pixels */
"                                                                                                                                ",
"                                                                                                                                ",
"                                                                                                                                ",
"                                        4 4 3 3 3 0 0                                                                           ",
"                                    k 3 3 5 5 9 9 w y y t c                                                                     ",
"                                    k 0 0 x c b n M m m n f t       $ $ $ $ , , < < 5 9 9 x                                     ",
"                                  J N N N N B B S t.i.i.&.m r w * # @ $ , < < 5 0 9 t f n n M                                   ",
"                                    H F V V B S @.t.V.(.i.o.u 9 % O @ , 3 0 k k c b B S t.i.e.y.                                ",
"                                    ^.G V B M M m o.t.i.t.o.u t 0 , , , 3 0 k c b B S t.V.`./.^.                                ",
"                                    }.!.F b y r r u d o.o.o.O.%.%.B.B.%.O.n t t x n C e.a./.{.                                  ",
"                                      }.!.N y q q r u d O.C.U.R.E.#X&X&X&XE.%.r q r d S y.).qX                                  ",
"                                        qX].!.G n d o.%.D.R.#X&X1X5X2X2X4X4X2XH.q r B p.{.wX                                    ",
"                                              qXA.C.D.F.R.#X&X1X5X2X4X3X3X3X3X2X/.^.}.qX                                        ",
"                                                '.F.F.F.R.@X&X5X2X4X3X7X9X9X9X9X                                                ",
"                                                '.F.D.D.D.D.F.R.%X#X1X4X7X9X9X0X                                                ",
"                                                 XG.C.C.C.C.C.C.C.C.D.D.F.%X#X8X                                                ",
"                                                  V.&.&.&.&.%.%.%.u.u.u.u.u.V. X                                                ",
"                                                  @.A m m Z Z A o.o.o.o.o.A t.                                                  ",
"                                      F V N c x w w e r r f d m m m m Z Z Z o.t.G S F F G H                                     ",
"                                F V b c y e e e 6 6 6 6 6 q e e s s u u p p s e e w y y v M C @.y.                              ",
"                            H V b v p p s s s i s i i i i i R R R R R R R R i i i i R E ~ ! { | #.d.                            ",
"                          p.C M a a a E E E Q Q E E E E ~ ~ ~ ^ ^ ^ ^ ^ ^ ^ ^ ~ ! ^ ^ ( ( / X.*.:.f.S.                          ",
"                          e.[ [ [ Q Q ! ' ' ' { ' { { { ( ( ( ( ( / / / / / / / / / _ X.*.=.=.;.7.Z.+X                          ",
"                        ).y.@.] ] ' ' } } } #.#.#.+.+.+.+.X.X.*.*.*.*.=.=.=.=.=.=.=.=.=.>.>.>.0.K.$X:X                          ",
"                        |.a.r.$. .} } +.#.2.2.2.2.2.2.2.2.:.:.;.;.>.>.>.>.>.>.>.>.9.0.0.q.l.v.J.$X<X<X                          ",
"                        yX`.a.r.$.#.#.<.2.6.0.*.r.S.g.6.6.6.6.9.0.q.q.q.q.l.l.v.K.K.J.T.P.P.Y.,X-XXX,X                          ",
"                        sX[.h.r.$.$.#.<.2.6.q.' G tXyX6Xf.-.7.0.l.z.z.z.b.K.K.T.P.P.Y.Y.Y.Y.-XdX-XI.,X                          ",
"                          wX(.j.r.$.#.<.2.2.6.| C qXgXfXy.6 E | >.7.l.l.x.z.x.z.z.b.K.K.J.S.wXfX@XXX<X                          ",
"                          yX_.h.d.$.$.<.2.2.2.-.Q |.fXgX@.E ! ! ~ ^ ^ ~ e y y w 9 w X.7.q.g.>XgXI.$X                            ",
"                          dX;X(.j.s.3.1.1.2.2.2.| A.fXuX} | -.-.-.-.+.{ 4 & & & * n l.P.Y.I.>XiXXXrX                            ",
"                            yX_.h.d.s.1.1.2.2.2.2.3.6X+X-.2.<.| | +.2.2.[ v x x 8.P.g.$.Z.XXOX$X<X                              ",
"                              >X`.j.d.3.4.2.2.2.6.6.9.6.6.+.a p p p a -.l.x.z.K.P.3.p p M I.XX*XaX                              ",
"                              sX;X(.j.f.4.4.4.2.6.7.7.9.,.L L 6 8 7 1 > -.z.z.m.N.W a a p J.$XiX                                ",
"                                yX[.(.d.f.4.4.2.6.7.7.0.U k.Y - X . . . s z.x.` k.Y L p a L.<X                                  ",
"                                  wX_.h.d.s.4.4.6.6.9.,.T aXM.K . . . . 1 l.c.T aXM.K O a XXpX                                  ",
"                                  dX;X(.j.s.4.4.2.6.0.^ K T I - . . . . > q.m.Y k.I ; X #.<X                                    ",
"                                    yX_.h.d.s.4.2.2.0.e X ; + . . . . . 1 l.K.) P - . @ .XpX                                    ",
"                                      ;X(.j.s.1.2.2.7.e . . . . . X O : Q z.g.a a 2 o p ,X                                      ",
"                                      yX_.j.s.3.1.2.2.' X . . o @ 7 a p -.0.6.a a a 8 g.iX                                      ",
"                                        |.h.d.3.5.<.2.2.@ O 1 s a a e 5 M :...9 a e ] $X                                        ",
"                                        wX`.d.r.$.5.2.6.{ e a a p 2 4 x ] b.Z.N k [ I.<X                                        ",
"                                          |.j.r.$.#.<.2.6.[ e 1 * k #.9.w.T.P.8.z S.$X                                          ",
"                                          yX).r.$.#.#.<.+.] y * c 1.q.l.b.J.T.K.c p.    *                                       ",
"                                            |.~.r. .} ] Q 2 % c 2.0.l.z.b.K.T.L.@.D   j g                                       ",
"                                      #       |.a.@.[ y > % k 4.0.l.z.v.b.J.L.XX[.J Q.W.Q.                                      ",
"                                      g # o o J !.N 4 % * N 4.q.q.l.v.b.J.I.OX:X    W.].                                        ",
"                                        l & # # # = & j F f.g.g.n.K.L..XOX:X                                                    ",
"                                          D l h h j l !.=XoXoXoXoX=X-XeX                                                        ",
"                                                                                                                                ",
"                                                                                                                                ",
"                                                                                                                                ",
"                                                                                                                                ",
"                                                                                                                                ",
"                                                                                                                                ",
"                                                                                                                                ",
"                                                                                                                                ",
"                                                                                                                                ",
"                                                                                                                                ",
"                                                                                                                                ",
"                                                                                                                                "
};
